<svg height="850" viewBox="0 0 610 850" width="610" xmlns="http://www.w3.org/2000/svg"><path d="m0 0h610v850h-610z" fill="#f3efdf"/><path d="m0 259h610v591h-610z" fill="#39412a"/><g fill="none" opacity=".1"><g stroke="#39412a"><path d="m526.9 33h26.1v182.8h-26.1z"/><path d="m474.7 33h26.2v182.8h-26.2z"/><path d="m422.5 189.7h78.4v26.1h-78.4z"/><path d="m370.3 137.5h78.3v26h-78.3z"/><path d="m422.5 85.2h26.1v78.3h-26.1z"/><path d="m370.3 85.2h78.3v26.1h-78.3z"/><path d="m370.3 85.2h26.1v78.3h-26.1z"/><path d="m396.4 163.5h26.1v52.3h-26.1z"/><path d="m318.1 189.7h104.4v26.1h-104.4z"/><path d="m396.4 33h52.2v26.2h-52.2z"/><path d="m265.8 33h26.1v182.8h-26.1z"/><path d="m318.1 33h26.1v182.8h-26.1z"/><path d="m265.8 137.5h78.4v26h-78.4z"/><path d="m265.8 189.7h78.4v26.1h-78.4z"/><path d="m213.6 137.5h26.2v78.3h-26.2z"/><path d="m161.5 189.7h78.3v26.1h-78.3z"/><path d="m161.5 85.2h52.1v26.1h-52.1z"/><path d="m161.5 85.2h26v52.3h-26z"/><path d="m187.5 111.3v26.2h-52.2v-26.2z"/><path d="m57 189.7h130.5v26.1h-130.5z"/><path d="m109.2 137.5h26.1v78.3h-26.1z"/><path d="m57 137.5h78.3v26h-78.3z"/></g><path d="m57 33h182.8v26.2h-182.8z" stroke="#f7aa55"/></g><g fill="#39412a"><path d="m454.5 61h17.5v122.7h-17.5z"/><path d="m419.4 61h17.6v122.7h-17.6z"/><path d="m384.4 166.2h52.6v17.5h-52.6z"/><path d="m349.4 131.2h52.5v17.4h-52.5z"/><path d="m384.4 96.1h17.5v52.5h-17.5z"/><path d="m349.4 96.1h52.5v17.5h-52.5z"/><path d="m349.4 96.1h17.5v52.5h-17.5z"/><path d="m366.9 148.6h17.5v35.1h-17.5z"/><path d="m314.3 166.2h70.1v17.5h-70.1z"/><path d="m366.9 61h35v17.6h-35z"/><path d="m279.2 61h17.5v122.7h-17.5z"/><path d="m314.3 61h17.5v122.7h-17.5z"/><path d="m279.2 131.2h52.6v17.4h-52.6z"/><path d="m279.2 166.2h52.6v17.5h-52.6z"/><path d="m244.1 131.2h17.6v52.5h-17.6z"/><path d="m209.2 166.2h52.5v17.5h-52.5z"/><path d="m209.2 96.1h34.9v17.5h-34.9z"/><path d="m209.2 96.1h17.4v35.1h-17.4z"/><path d="m226.6 113.6v17.6h-35v-17.6z"/><path d="m139 166.2h87.6v17.5h-87.6z"/><path d="m174.1 131.2h17.5v52.5h-17.5z"/><path d="m139 131.2h52.6v17.4h-52.6z"/></g><path d="m139 61h122.7v17.6h-122.7z" fill="#f7aa55"/><path d="m0 260h45v139h-45z" fill="#f7aa55"/><path d="m533 711h77v139h-77z" fill="#f7aa55"/><path d="m0 245h610v10h-610z" fill="#f7aa55"/></svg>