<svg width="32" height="32" viewBox="0 0 32 32" fill="none" xmlns="http://www.w3.org/2000/svg">
<g clip-path="url(#clip0_45_387)">
<path d="M17.5818 14.5745C17.736 14.7113 17.8814 14.8451 18.0181 14.9818C18.1549 15.1185 18.2887 15.264 18.4254 15.4182C18.4254 15.6131 18.4341 15.8051 18.4545 16C18.4341 16.1949 18.4254 16.3869 18.4254 16.5818C18.2887 16.736 18.1549 16.8815 18.0181 17.0182C17.8814 17.1549 17.736 17.2887 17.5818 17.4255C17.3869 17.4255 17.1949 17.4342 17 17.4545C16.805 17.4342 16.613 17.4255 16.4181 17.4255C16.264 17.2887 16.1185 17.1549 15.9818 17.0182C15.845 16.8815 15.7112 16.736 15.5745 16.5818C15.5745 16.3869 15.5658 16.1949 15.5454 16C15.5658 15.8051 15.5745 15.6131 15.5745 15.4182C15.7112 15.264 15.845 15.1185 15.9818 14.9818C16.1185 14.8451 16.264 14.7113 16.4181 14.5745C16.613 14.5745 16.805 14.5658 17 14.5455C17.1949 14.5658 17.3869 14.5745 17.5818 14.5745Z" fill="#E6DAC8"/>
<path d="M17.7564 13.2073C17.64 13.5855 17.32 13.7309 17 13.7018C16.68 13.7309 16.36 13.5855 16.2437 13.2073C15.7491 11.8691 14.12 7.09818 17 7.09818C19.88 7.09818 18.2509 11.8691 17.7564 13.2073Z" fill="#E6DAC8"/>
<path d="M19.5018 14.5745C19.1527 14.7491 18.8327 14.6036 18.629 14.3709C18.3963 14.1673 18.2509 13.8473 18.4254 13.4982C19.0363 12.1891 21.2472 7.68 23.2836 9.71636C25.3199 11.7527 20.8109 13.9636 19.5018 14.5745Z" fill="#E6DAC8"/>
<path d="M19.7927 16.7564C19.4145 16.64 19.2691 16.32 19.2982 16C19.2691 15.68 19.4145 15.36 19.7927 15.2436C21.1309 14.7491 25.9018 13.12 25.9018 16C25.9018 18.88 21.1309 17.2509 19.7927 16.7564Z" fill="#E6DAC8"/>
<path d="M18.4254 18.5018C18.2509 18.1527 18.3963 17.8327 18.629 17.6291C18.8327 17.3964 19.1527 17.2509 19.5018 17.4255C20.8109 18.0364 25.3199 20.2473 23.2836 22.2836C21.2472 24.32 19.0363 19.8109 18.4254 18.5018Z" fill="#E6DAC8"/>
<path d="M16.2437 18.7927C16.36 18.4145 16.68 18.2691 17 18.2982C17.32 18.2691 17.64 18.4145 17.7564 18.7927C18.2509 20.1309 19.88 24.9018 17 24.9018C14.12 24.9018 15.7491 20.1309 16.2437 18.7927Z" fill="#E6DAC8"/>
<path d="M14.4982 17.4255C14.8473 17.2509 15.1673 17.3964 15.371 17.6291C15.6037 17.8327 15.7491 18.1527 15.5746 18.5018C14.9637 19.8109 12.7528 24.32 10.7164 22.2836C8.68006 20.2473 13.1892 18.0364 14.4982 17.4255Z" fill="#E6DAC8"/>
<path d="M14.2072 15.2436C14.5854 15.36 14.7309 15.68 14.7018 16C14.7309 16.32 14.5854 16.64 14.2072 16.7564C12.8691 17.2509 8.09814 18.88 8.09814 16C8.09814 13.12 12.8691 14.7491 14.2072 15.2436Z" fill="#E6DAC8"/>
<path d="M15.5746 13.4982C15.7491 13.8473 15.6037 14.1673 15.371 14.3709C15.1673 14.6036 14.8473 14.7491 14.4982 14.5745C13.1892 13.9636 8.68006 11.7527 10.7164 9.71636C12.7528 7.68 14.9637 12.1891 15.5746 13.4982Z" fill="#E6DAC8"/>
<path fill-rule="evenodd" clip-rule="evenodd" d="M17.6109 0.349091C18.4545 1.83273 19.7345 2.41455 20.9273 3.49091C21.3055 3.81091 21.5673 4.16 21.7418 4.53818C22.1491 4.39273 22.5855 4.33455 23.08 4.36364C24.68 4.45091 26.0182 4.94545 27.6182 4.48C27.88 4.42182 28.1418 4.50909 28.3164 4.68364C28.4909 4.85818 28.5782 5.12 28.52 5.38182C28.0545 6.98182 28.5491 8.32 28.6364 9.92C28.6655 10.4145 28.6073 10.8509 28.4618 11.2582C28.84 11.4327 29.1891 11.6945 29.5091 12.0727C30.5855 13.2655 31.1673 14.5455 32.6509 15.3891C32.8836 15.5055 33 15.7673 33 16C33 16.2327 32.8836 16.4945 32.6509 16.6109C31.1673 17.4545 30.5855 18.7345 29.5091 19.9273C29.1891 20.3055 28.84 20.5673 28.4618 20.7418C28.6073 21.1491 28.6655 21.5855 28.6364 22.08C28.5491 23.68 28.0545 25.0182 28.52 26.6182C28.5782 26.88 28.4909 27.1418 28.3164 27.3164C28.1418 27.4909 27.88 27.5782 27.6182 27.52C26.0182 27.0545 24.68 27.5491 23.08 27.6364C22.5855 27.6655 22.1491 27.6073 21.7418 27.4618C21.5673 27.84 21.3055 28.1891 20.9273 28.5091C19.7345 29.5855 18.4545 30.1673 17.6109 31.6509C17.4945 31.8836 17.2327 32 17 32C16.7673 32 16.5055 31.8836 16.3891 31.6509C15.5455 30.1673 14.2655 29.5855 13.0727 28.5091C12.6945 28.1891 12.4327 27.84 12.2582 27.4618C11.8509 27.6073 11.4145 27.6655 10.92 27.6364C9.32 27.5491 7.98182 27.0545 6.38182 27.52C6.12 27.5782 5.85818 27.4909 5.68364 27.3164C5.50909 27.1418 5.42182 26.88 5.48 26.6182C5.94545 25.0182 5.45091 23.68 5.36364 22.08C5.33455 21.5855 5.39273 21.1491 5.53818 20.7418C5.16 20.5673 4.81091 20.3055 4.49091 19.9273C3.41455 18.7345 2.83273 17.4545 1.34909 16.6109C1.11636 16.4945 1 16.2327 1 16C1 15.7673 1.11636 15.5055 1.34909 15.3891C2.83273 14.5455 3.41455 13.2655 4.49091 12.0727C4.81091 11.6945 5.16 11.4327 5.53818 11.2582C5.39273 10.8509 5.33455 10.4145 5.36364 9.92C5.45091 8.32 5.94545 6.98182 5.48 5.38182C5.42182 5.12 5.50909 4.85818 5.68364 4.68364C5.85818 4.50909 6.12 4.42182 6.38182 4.48C7.98182 4.94545 9.32 4.45091 10.92 4.36364C11.4145 4.33455 11.8509 4.39273 12.2582 4.53818C12.4327 4.16 12.6945 3.81091 13.0727 3.49091C14.2655 2.41455 15.5455 1.83273 16.3891 0.349091C16.5055 0.116364 16.7673 0 17 0C17.2327 0 17.4945 0.116364 17.6109 0.349091ZM9.37818 8.37818C8.38909 9.36727 7.89455 10.8218 8.27273 12.3927C6.90545 13.2073 6.20727 14.6036 6.20727 16C6.20727 17.3964 6.90545 18.7927 8.27273 19.6073C7.89455 21.1782 8.38909 22.6327 9.37818 23.6218C10.3673 24.6109 11.8218 25.1055 13.3927 24.7273C14.2073 26.0945 15.6036 26.7927 17 26.7927C18.3964 26.7927 19.7927 26.0945 20.6073 24.7273C22.1782 25.1055 23.6327 24.6109 24.6218 23.6218C25.6109 22.6327 26.1055 21.1782 25.7273 19.6073C27.0945 18.7927 27.7927 17.3964 27.7927 16C27.7927 14.6036 27.0945 13.2073 25.7273 12.3927C26.1055 10.8218 25.6109 9.36727 24.6218 8.37818C23.6327 7.38909 22.1782 6.89455 20.6073 7.27273C19.7927 5.90545 18.3964 5.20727 17 5.20727C15.6036 5.20727 14.2073 5.90545 13.3927 7.27273C11.8218 6.89455 10.3673 7.38909 9.37818 8.37818ZM17.0291 2.06545C17.0291 2.06545 17.0204 2.05673 17 2.03636C16.9796 2.05673 16.9709 2.06545 16.9709 2.06545H17.0291ZM26.8618 6.16727V6.13818H26.8327V6.16727C26.8531 6.16727 26.8618 6.16727 26.8618 6.16727ZM30.9345 16.0291L30.9636 16L30.9345 15.9709V16.0291ZM26.8327 25.8618H26.8618V25.8327C26.8618 25.8327 26.8531 25.8327 26.8327 25.8327V25.8618ZM16.9709 29.9345C16.9709 29.9345 16.9796 29.9433 17 29.9636C17.0204 29.9433 17.0291 29.9345 17.0291 29.9345H16.9709ZM7.13818 25.8327C7.13818 25.8531 7.13818 25.8618 7.13818 25.8618H7.16727V25.8327C7.14691 25.8327 7.13818 25.8327 7.13818 25.8327ZM3.06545 15.9709C3.06545 15.9709 3.05673 15.9796 3.03636 16C3.05673 16.0204 3.06545 16.0291 3.06545 16.0291V15.9709ZM7.16727 6.13818C7.14691 6.13818 7.13818 6.13818 7.13818 6.13818C7.13818 6.13818 7.13818 6.14691 7.13818 6.16727H7.16727C7.16727 6.14691 7.16727 6.13818 7.16727 6.13818Z" fill="#3C2A21"/>
</g>
<defs>
<clipPath id="clip0_45_387">
<rect width="32" height="32" fill="white"/>
</clipPath>
</defs>
</svg>
