<svg fill="none" height="365" viewBox="0 0 297 365" width="297" xmlns="http://www.w3.org/2000/svg"><g fill="#000"><path d="m149.119 130.065c.022.108.074.124.154.046 2.597-2.48 5.176-5.048 7.519-7.775 5.429-6.313 10.45-12.437 14.912-19.012.012-.017.019-.037.023-.057.003-.021.001-.042-.005-.062s-.016-.038-.031-.054c-.014-.015-.031-.027-.05-.035-3.358-1.372-6.641-2.718-9.85-4.0356-2.012-.8253-3.983-1.7619-5.793-2.9656-2.159-1.4355-3.998-3.4812-5.611-5.6716-2.12-2.8803-3.436-5.9498-3.304-9.4959.221-5.9146 2.975-11.4322 5.2-16.7514.367-.8767.806-1.8238 1.318-2.8414.471-.9372.966-1.8868 1.484-2.8488 3.119-5.7754 7.233-11.2115 12.135-15.5588 4.296-3.8095 9.68-7.0775 15.48-7.4076 3.811-.2152 7.244 1.417 9.479 4.5217 1.162 1.6135 2.026 3.5486 2.593 5.8051.689 2.7511 1.039 5.7217 1.049 8.9117.023 8.4005-1.261 16.6791-3.854 24.836-.617 1.9437-1.277 3.9294-1.98 5.9572-.009.0249-.008.0522.003.0763s.03.0432.055.0535c6.047 2.565 11.651 5.9906 15.43 11.4397.011.0166.018.0355.02.0552.002.0196 0 .0395-.007.0579-2.492 6.8254-4.944 13.5444-7.355 20.1584-.085.231-.224.412-.417.543-.636.434-1.159.041-1.559-.504-3.68-5.03-9.631-8.417-15.556-10.698-.035-.013-.074-.013-.109 0-.035.014-.064.039-.081.073-3.164 6.007-6.586 11.997-10.268 17.968-.645 1.048-1.308 2.061-1.986 3.039-5.022 7.255-10.502 14.044-16.438 20.369-.104.111-.178.233-.169.389.451 7.481.314 14.911-.411 22.291-.469 4.766-1.177 9.248-2.126 13.447-.537 2.375-1.19 4.573-1.96 6.593-.517 1.354-1.642 4.077-3.578 3.591-1.947-.488-1.919-3.949-1.884-5.446.067-2.946.141-5.93.221-8.952.108-4.021-.136-8.064-.63-12.002-.366-2.909-.747-5.796-1.144-8.659-.001-.009-.005-.017-.011-.024-.005-.007-.012-.012-.021-.016-.008-.003-.016-.004-.025-.002-.008.001-.016.005-.023.01-7.465 6.395-15.67 11.918-25.067 14.96-5.059 1.638-10.619 2.437-15.8267 1.651-11.774-1.777-18.8391-10.603-20.8309-21.935-.5728-3.26-.8685-6.721-.8871-10.383-.0198-4.185.2002-8.449.6602-12.79.6472-6.104 1.5641-12.158 2.7506-18.163.5244-2.648 1.0172-5.181 1.4785-7.598.5672-2.958 1.7277-10.9836-1.3855-12.8884-1.0992-.6714-2.6706-.6751-3.952-.6083-1.5634.0828-3.0239.2535-4.3815.5119-7.005 1.3329-13.5371 3.7811-19.5961 7.3445-1.5882.9343-3.1429 2.1013-4.6679 3.1713-.5598.393-1.313.584-1.9248.217-.6038-.36-.7892-.964-.5561-1.812.0843-.304.1816-.604.292-.901.1165-.3155.2467-.6209.3905-.9164.1488-.3066.3056-.6034.4705-.8902 1.1878-2.0649 2.5987-4.136 4.2328-6.2132 4.6915-5.9646 9.9899-11.0409 15.8952-15.2287 5.1235-3.6333 11.0635-6.6324 17.0891-7.9121 1.7903-.3808 3.6023-.2516 5.436.3876 4.8446 1.6859 7.3255 6.0704 7.6193 11.0539.2251 3.7873-.6137 7.6728-1.8523 11.308-3.3568 9.8431-5.8953 20.1511-5.5494 30.5801.1878 5.644 1.2516 11.393 3.4833 16.454 2.3525 5.336 6.3361 9.426 12.1513 10.754 3.974.907 8.19.534 12.167-.462 6.46-1.619 12.622-4.729 18.236-8.29.014-.009.024-.022.03-.037.005-.015.005-.032 0-.047-1.541-4.224-3.459-8.424-5.754-12.602-6.177-11.242-13.876-21.282-23.096-30.1203-.381-.3672-.601-.7678-.508-1.2945 1.823-10.2898 3.656-20.658 5.501-31.1048.145-.8216 1.016-1.3873 1.795-1.0275.207.0965.41.2386.608.4266 10.126 9.5924 18.174 20.6549 24.145 33.1875 4.817 10.11 8.285 20.889 10.565 31.86zm30.991-48.552c.007-.3067.047-.7988.119-1.4764.385-3.6592.379-7.3983-.458-10.9092-.404-1.6964-1.019-3.1764-1.845-4.44-1.16-1.7731-3.195-3.472-5.333-3.4497-5.191.0519-10.307 2.6929-14.38 5.8682-.02.0159-.034.0374-.042.0617-.008.0244-.009.0506-.002.0755.204.7592.501 1.4213.89 1.9864 1.693 2.4518 3.958 4.7943 6.621 6.2613 1.361.7506 2.662 1.3756 3.902 1.8751 3.506 1.417 6.958 2.8364 10.355 4.2583.111.047.169.0099.173-.1112z"/><path d="m210.331 210.285c-1.791-.453-3.505-1.037-5.144-1.753-6.788-2.964-8.369-11.235-7.579-17.732.3-2.476.61-4.937.93-7.386.218-1.67.4-2.894.545-3.67.978-5.23 2.956-10.175 5.934-14.834 1.785-2.792 3.724-5.315 5.82-7.569.14-.152.219-.329.238-.532.364-3.852.741-7.766 1.13-11.744.367-3.759 1.272-8.299 4.347-10.768 2.237-1.797 5.134-2.014 7.881-1.346 1.11.27 2.241.86 3.26 1.396 2.792 1.469 5.71 3.355 8.752 5.657 6.007 4.545 11.568 9.713 16.684 15.503 4.493 5.087 8.588 10.7 11.525 16.679 1.973 4.016 3.485 8.431 3.617 12.77.032 1.037-.04 2.195-.218 3.473-.822 5.933-2.566 11.978-5.359 17.091-1.736 3.174-4.105 6.219-7.352 7.641-.415.182-.914.318-1.497.407-5.457.838-11.008.942-16.794.66-4.661-.228-9.363-.689-14.104-1.384-.12-.018-.212.025-.275.13-2.802 4.679-5.884 9.233-9.245 13.664-2.549 3.359-5.052 6.323-7.509 8.891-.995 1.04-2.107 2.077-3.337 3.112-.679.572-1.372 1.063-2.077 1.471-3.117 1.797-6.091 3.49-9.451 5.176-7.134 3.578-14.407 6.922-21.819 10.03-.055.023-.103.059-.139.106s-.059.103-.067.161c-.296 2.1-.673 4.337-1.367 6.351-.251.73-.694 1.708-1.419 2.055-1.412.673-2.172-.931-2.418-2.011-.285-1.265-.468-2.593-.55-3.984-.002-.028-.01-.055-.024-.08-.014-.024-.034-.044-.058-.06-.024-.015-.052-.024-.08-.026-.029-.003-.057.002-.084.012-2.388.978-4.802 1.862-7.243 2.651-.81.261-1.627.481-2.451.662-.038.008-.071.028-.095.058-.024.029-.037.065-.037.103-.039 2.525-.219 4.842-.542 6.952-.163 1.068-.571 3.206-1.614 3.768-2.261 1.217-3.286-3.117-3.625-4.427-1.096-4.235-2.27-8.207-3.522-11.916-1.382-4.09-3.262-7.875-5.073-11.863-2.459-5.408-5.752-10.33-9.84-14.548-1.601-1.65-3.279-3.07-5.034-4.258-.081-.056-.151-.045-.211.033-3.984 5.237-8.078 10.191-12.281 14.862-.796.885-1.66 1.785-2.591 2.698-.839.824-1.782 1.608-2.827 2.354-1.708 1.219-3.252 2.24-4.632 3.064-6.197 3.699-12.8988 6.732-20.1059 9.099-4.4504 1.461-8.9491 2.146-13.8402 2.148-10.3234.007-20.4162-4.101-22.4191-15.383-.4594-2.589-.517-5.445-.0186-8.062 1.0898-5.715 3.3252-11.011 6.2822-15.988 3.381-5.695 7.7086-11.276 12.1719-16.438 3.2409-3.75 6.5724-7.484 9.9943-11.204.0496-.054.0446-.102-.0149-.142-5.8321-3.971-13.3046-5.924-20.1949-5.509-1.2485.076-2.6793.241-4.2923.495-1.8634.295-3.7002.774-5.5104 1.438-.1692.061-.3626.068-.5356.139-.9063.367-1.7835.638-2.6315.812-.889.182-1.476-.08-1.7612-.784-.2101-.52.0447-1.254.2734-1.755.3199-.705.6788-1.377 1.0768-2.016.1041-.167.1971-.336.279-.508.0855-.182.181-.361.2864-.536 2.2602-3.747 4.415-7.299 6.4644-10.659.5666-.928 1.1468-1.824 1.7407-2.685 1.4488-2.102 3.0518-3.591 5.5737-4.161 2.0903-.471 4.1806-.984 6.3621-1.016 6.9616-.099 13.3368 1.599 19.1256 5.093 3.0425 1.838 6.1389 4.501 7.5021 7.806.0707.169.1042.295.0391.477-2.0978 5.803-4.1801 11.587-6.2469 17.352-.2616.729-.5678 1.387-.9187 1.976-1.4859 2.494-3.3866 4.963-5.2203 7.14-2.3693 2.814-4.6908 5.566-6.9647 8.255-2.3209 2.745-4.2551 5.316-5.8024 7.712-.5616.872-1.117 1.921-1.6663 3.149-.5932 1.326-.9949 2.873-.6676 4.309.1692.743.2027 1.496.4258 2.236 1.8635 6.171 9.5647 7.554 15.0565 7.391 8.7036-.259 16.9533-3.205 24.714-7.057 3.2765-1.624 6.3855-3.294 9.3245-5.007.365-.213.749-.41 1.153-.592.153-.068.148-.122-.015-.163-2.394-.607-4.071-1.946-5.03-4.017-.835-1.805-.856-3.66-.934-5.631-.22-5.502-.48-11.456-.779-17.861-.048-1.061-.024-1.965.073-2.713.714-5.457 3.319-11.644 10.033-11.065 4.032.349 7.513 3.045 10.431 5.684 5.874 5.312 11.031 11.34 15.469 18.083 4.021 6.108 7.216 12.686 9.256 19.742 2.751 9.512 4.036 19.719 4.27 29.773.001.01.004.02.009.029.005.008.013.015.022.02s.02.007.03.006c.01 0 .02-.003.028-.009 1.295-.895 2.639-1.836 4.032-2.823 1.747-1.235 3.534-2.316 5.323-3.496.048-.031.076-.075.084-.133.033-.271.039-.541.018-.809-.62-8.217-1.111-16.404-1.475-24.56-.453-10.188-.615-19.814-.485-28.879.037-2.571.308-6.073.813-10.505.485-4.26 1.214-8.246 2.189-11.957 2.138-8.14 6.338-17.415 15.268-19.871 1.557-.429 2.95-.608 4.177-.537 1.017.056 2.074.396 3.173 1.02 2.974 1.684 5.001 4.798 6.033 8.067 1.194 3.778 1.24 7.762.61 11.755-.177 1.126-.396 2.347-.655 3.663-.58 2.96-1.113 5.711-1.599 8.252-.216 1.132-.649 2.317-1.3 3.553-1.51 2.866-4.201 2.908-6.762 1.462-1.065-.602-2.117-1.206-3.154-1.812-.647-.379-1.869-.939-2.6-.525-1.228.694-2.34 2.294-3.026 3.477-1.031 1.782-1.845 3.708-2.442 5.778-1.694 5.875-2.092 12.233-1.774 18.355.515 9.901.703 19.428.169 29.073 0 .007.002.015.005.022.004.006.01.012.017.016.006.003.014.005.022.005.008-.001.015-.004.021-.008 9.319-6.714 18.223-13.899 26.712-21.553 1.523-1.374 3.078-2.875 4.662-4.504 1.98-2.032 3.969-4.095 5.968-6.187.972-1.017 1.984-2.142 3.037-3.373.052-.06.04-.099-.037-.119zm-6.262-26.457c3.457 2.378 7.266 3.446 11.456 4.362 3.757.821 7.212 1.5 10.366 2.037.068.012.128-.006.179-.054.328-.317.524-.68.587-1.091.683-4.388.884-8.622-.552-12.753-1.155-3.323-3.202-6.621-6.92-6.862-2.483-.161-4.828 1.028-6.896 2.241-2.209 1.296-3.967 3.225-5.516 5.469-1.284 1.86-2.424 3.84-3.418 5.942-.017.036-.021.076-.013.114.009.037.029.071.059.096.215.174.437.341.668.499zm29.071 4.883c.006.319-.247.787-.362 1.093-.088.235-.272.38-.244.647.01.089-.004.174-.043.256l-.174.378c-.05.107-.016.169.102.188 4.245.67 8.492 1.202 12.741 1.596 3.461.321 6.857.279 10.431.125 1.187-.052 2.311-.212 3.372-.479.012-.003.023-.01.032-.019s.015-.02.018-.033c.003-.012.002-.025-.002-.037s-.011-.023-.02-.031c-.731-.612-1.421-1.228-2.024-1.987-5.343-6.749-11.476-12.942-18.716-17.619-.011-.007-.023-.011-.036-.012-.013 0-.026.002-.037.008-.012.005-.022.013-.029.023s-.012.022-.013.035c-.16 1.334-.421 2.684-.783 4.05-.292 1.097-.682 2.302-1.17 3.615-.78 2.1-1.54 4.184-2.28 6.254-.211.591-.459 1.211-.744 1.86-.012.029-.019.058-.019.089z"/><path d="m69.0987 300.648c.8852 5.598.5356 11.399-.6305 16.98-.6769 3.236-1.365 6.083-2.3414 9.086-.2356.727-.4866 1.368-.7532 1.923-.4724.983-1.7128 1.317-2.3191.262-.2417-.419-.4438-.986-.6063-1.699-1.4245-6.249-3.1541-12.469-6.4942-18.039-2.9532-4.92-6.55-9.351-10.7939-13.053-2.0903-1.824-4.3034-3.529-6.6392-5.115-3.8051-2.586-6.669-4.466-9.5461-7.091-.2213-.202-.3552-.593-.2752-.884 2.7338-9.994 5.4738-20.022 8.22-30.083.2139-.783.9411-1.031 1.6254-.61 23.7805 14.572 51.286 21.827 78.951 24.038 24.082 1.925 48.882.241 72.701-4.577 10.85-2.194 21.875-5.113 32.07-9.105 4.625-1.811 9.582-3.975 14.868-6.491 5.25-2.499 10.952-5.263 17.106-8.292 2.485-1.223 5.289-2.552 7.982-3.444 1.382-.457 3.64-.885 3.84 1.205.095.97-.907 2.471-1.486 3.274-.844 1.17-1.715 2.279-2.612 3.325-1.638 1.91-3.249 3.746-4.834 5.508-10.851 12.066-23.576 21.742-38.175 29.028-3.61 1.801-6.838 3.311-9.683 4.529-3.305 1.415-6.62 2.654-9.948 3.719-2.288.732-4.574 1.432-6.859 2.101-.294.085-.596.163-.906.232-.73.161-1.439.425-2.179.579-.577.12-1.155.317-1.728.459-20.945 5.224-42.258 7.955-63.938 8.193-18.327.202-36.8168-1.64-54.5196-6.047-.0125-.003-.0256-.003-.0381 0s-.024.01-.0336.018c-.0096.009-.0169.02-.0212.033-.0044.012-.0057.025-.0038.038z"/></g></svg>