<svg height="512" viewBox="0 0 512 512" width="512" xmlns="http://www.w3.org/2000/svg"><g fill="#f3efdf"><path d="m422 187.2h19.6v137.5h-19.6z"/><path d="m382.7 187.2h19.7v137.5h-19.7z"/><path d="m343.4 324.7v-19.6h59v19.6z"/><path d="m304.2 285.4v-19.6h58.9v19.6z"/><path d="m343.4 226.5h19.7v58.9h-19.7z"/><path d="m304.2 246.1v-19.6h58.9v19.6z"/><path d="m323.8 285.4h-19.6v-58.9h19.6z"/><path d="m323.8 285.4h19.6v39.3h-19.6z"/><path d="m343.4 305.1v19.6h-78.5v-19.6z"/><path d="m363.1 187.2v19.7h-39.3v-19.7z"/><path d="m225.6 187.2h19.6v137.5h-19.6z"/><path d="m264.9 187.2h19.6v137.5h-19.6z"/><path d="m225.6 285.4v-19.6h58.9v19.6z"/><path d="m225.6 324.7v-19.6h58.9v19.6z"/><path d="m186.3 265.8h19.7v58.9h-19.7z"/><path d="m206 305.1v19.6h-58.9v-19.6z"/><path d="m186.3 226.5v19.6h-39.2v-19.6z"/><path d="m147.1 226.5h19.6v39.3h-19.6z"/><path d="m166.7 246.1v19.7h-39.3v-19.7z"/><path d="m166.7 305.1v19.6h-98.2v-19.6z"/><path d="m127.4 324.7h-19.6v-58.9h19.6z"/><path d="m127.4 265.8v19.6h-58.9v-19.6z"/></g><path d="m68.5 364v-19.7h373.1v19.7z" fill="#f7aa55"/><path d="m69.4 403.3v-19.7h373.1v19.7z" fill="#f7aa55"/><path d="m69.4 439.8v-19.6h373.1v19.6z" fill="#f7aa55"/><path d="m68.5 167.6v-19.6h373.1v19.6z" fill="#f7aa55"/><path d="m68.5 128.3v-19.6h373.1v19.6z" fill="#f7aa55"/><path d="m68.5 91.7v-19.6h373.1v19.6z" fill="#f7aa55"/><path d="m68.5 206.9v-19.7h137.5v19.7z" fill="#f7aa55"/></svg>