<svg height="601" viewBox="0 0 595 601" width="595" xmlns="http://www.w3.org/2000/svg"><g fill="none" stroke="#000" stroke-width="4"><path d="m197.7 324.4v-53.8h51.9l24.2 26.9-24.2 26.9z"/><path d="m324.4 397.3h-53.8v-51.9l26.9-24.2 26.9 24.2z"/><path d="m595 297.5-87.1 87.1v123.3h-123.3l-87.1 87.1-87.1-87.1h-123.3v-123.3l-87.1-87.1 87.1-87.1v-123.3h123.3l87.1-87.1 87.1 87.1h123.3v123.3zm-56.2.1-70.7-71.2v-99.5h-99.5l-71.1-70.7-71.2 70.7h-99.4v99.3l-70.8 71.3 70.8 71.3v99.3h99.2l71.3 70.8 71.3-70.8h99.4v-99.4z"/><path d="m345.4 270.6h51.8v53.8h-51.8l-24.2-26.9z"/><path d="m270.6 197.8h53.8v51.8l-26.9 24.2-26.9-24.2z"/><path d="m432.7 404.4 35.4-35.6v99.3h-99.4l35.6-35.3-36.2-35.5h-43.7v-51.9l-26.9-24.2-26.9 24.2v51.9h-43.8l-36.2 35.5 35.5 35.3h-99.2v-99.3l35.3 35.6 35.5-36.2v-43.8h51.9l24.2-26.9-24.2-26.9h-51.9v-43.7l-35.5-36.2-35.3 35.6v-99.4h99.4l-35.7 35.4 36.2 35.5h43.8v51.8l26.9 24.2 26.9-24.2v-51.8h43.7l36.2-35.5-35.7-35.4h99.5v99.5l-35.4-35.7-35.5 36.2v43.7h-51.8l-24.2 26.9 24.2 26.9h51.8v43.8z"/><path d="m270.6 126.9h-44.3l71.2-70.7 71.1 70.7h-44.2v70.9h-53.8z"/><path d="m324.4 126.9h44.2l35.7 35.4-36.2 35.5h-43.7z"/><path d="m190.6 162.3 35.7-35.4h44.3v70.9h-43.8z"/><path d="m538.8 297.6-70.7 71.2v-44.4h-70.9v-53.8h70.9v-44.2z"/><path d="m468.1 324.4v44.4l-35.4 35.6-35.5-36.2v-43.8z"/><path d="m432.7 190.7 35.4 35.7v44.2h-70.9v-43.7z"/><path d="m126.9 324.4v44.4l-70.8-71.3 70.8-71.2v44.3h70.8v53.8z"/><path d="m162.2 404.4-35.3-35.6v-44.4h70.8v43.8z"/><path d="m126.9 270.6v-44.3l35.3-35.6 35.5 36.2v43.7z"/><path d="m324.4 468.1h44.3l-71.3 70.8-71.3-70.8h44.5v-70.8h53.8z"/><path d="m270.6 468.1h-44.5l-35.5-35.3 36.2-35.5h43.8z"/><path d="m404.3 432.8-35.6 35.3h-44.3v-70.8h43.7z"/></g></svg>